<?xml version="1.0" standalone="no"?>
<!DOCTYPE svg PUBLIC "-//W3C//DTD SVG 20010904//EN"
 "http://www.w3.org/TR/2001/REC-SVG-20010904/DTD/svg10.dtd">
<svg version="1.0" xmlns="http://www.w3.org/2000/svg"
 width="2388.000000pt" height="1668.000000pt" viewBox="0 0 2388.000000 1668.000000"
 preserveAspectRatio="xMidYMid meet">

<g transform="translate(0.000000,1668.000000) scale(0.100000,-0.100000)"
fill="#000000" stroke="none">
<path d="M16272 12666 c-60 -15 -72 -23 -49 -32 9 -3 39 1 68 9 48 15 79 14
79 -2 0 -13 -55 -46 -155 -93 -100 -47 -143 -65 -420 -178 -82 -34 -163 -68
-180 -75 -16 -8 -120 -52 -230 -99 -527 -223 -821 -374 -948 -485 -32 -28 -66
-51 -76 -51 -31 0 -42 22 -31 61 6 18 10 36 10 39 0 3 -42 6 -92 6 -83 0 -107
5 -217 42 -122 41 -124 41 -147 23 -22 -17 -22 -20 -8 -32 9 -8 35 -13 58 -12
58 2 114 -14 169 -49 53 -34 65 -51 72 -102 4 -37 0 -42 -25 -26 -10 6 -20 5
-30 -4 -8 -7 -41 -22 -72 -34 -85 -31 -192 -106 -293 -203 -111 -108 -342
-317 -372 -336 -30 -20 -67 -1 -58 30 14 46 73 132 141 205 83 91 90 101 99
168 5 41 18 66 62 125 31 41 64 94 75 118 32 70 26 153 -8 106 -57 -81 -182
-175 -234 -175 -17 0 -19 3 -10 20 6 10 34 45 64 77 86 93 93 119 49 170 -16
17 -40 45 -55 63 l-28 32 -32 -20 c-69 -42 -195 -100 -228 -107 -19 -4 -71
-25 -116 -48 l-81 -41 -72 14 c-67 13 -72 12 -85 -6 -29 -38 -28 -80 0 -146
28 -64 29 -74 22 -228 -3 -56 -8 -72 -39 -115 -54 -75 -71 -128 -74 -228 -2
-48 -8 -94 -14 -101 -11 -13 36 -22 154 -30 40 -2 222 -102 236 -129 10 -17 8
-24 -13 -41 -13 -12 -32 -34 -43 -51 -10 -16 -98 -111 -195 -210 -255 -261
-487 -515 -741 -815 -338 -398 -624 -726 -655 -750 -21 -17 -2 7 187 240 74
91 166 205 204 253 121 152 178 222 465 567 131 158 340 400 396 460 45 48
132 145 202 224 41 47 53 76 31 76 -25 0 -180 -114 -310 -227 -74 -65 -159
-138 -188 -163 -71 -60 -62 -52 -182 -162 -85 -78 -112 -98 -140 -100 l-34 -3
1 60 c1 59 2 63 100 210 55 83 111 168 124 190 13 22 30 46 37 53 7 7 13 19
13 26 0 7 9 21 20 31 20 18 28 41 11 30 -34 -20 -536 -735 -616 -877 l-30 -53
-5 105 c-6 130 -6 130 -171 130 -129 0 -196 -17 -278 -69 -112 -72 -119 -86
-391 -706 -107 -245 -226 -509 -519 -1155 -57 -124 -124 -272 -151 -330 -26
-58 -81 -177 -120 -265 -116 -257 -169 -374 -211 -463 -45 -97 -56 -161 -39
-232 l12 -51 802 3 801 3 57 28 c67 33 167 135 188 192 12 34 15 191 18 994
l3 954 102 102 c97 97 344 296 932 750 176 136 336 262 442 347 116 93 121 99
114 126 -7 22 -4 33 14 55 19 21 24 23 29 11 9 -24 7 -46 -6 -64 -7 -9 1 -1
18 18 29 33 34 35 74 28 24 -4 62 -20 84 -36 29 -22 51 -30 82 -30 59 0 24 56
539 -860 125 -223 276 -490 335 -595 282 -499 293 -520 292 -550 -1 -20 8 -40
26 -59 l27 -29 -27 7 c-34 8 -34 7 -7 -47 32 -64 65 -103 114 -137 50 -34 64
-69 45 -105 -11 -21 -8 -32 30 -102 24 -43 75 -127 115 -188 39 -60 81 -126
93 -146 12 -20 38 -49 56 -63 19 -14 49 -52 67 -83 18 -32 93 -148 166 -259
125 -190 135 -203 193 -237 71 -43 175 -77 234 -77 138 0 386 163 455 299 35
67 54 159 48 228 -5 72 -22 106 -187 372 -60 97 -113 182 -118 190 -6 11 -16
7 -45 -19 -20 -17 -37 -28 -37 -23 0 6 9 18 20 28 11 10 22 26 25 36 7 20 3
28 -141 280 -46 81 -84 156 -84 168 0 18 -25 81 -33 81 -1 0 -20 7 -42 14 -26
9 -46 11 -57 5 -15 -8 -16 -5 -11 26 5 30 0 45 -33 93 -21 31 -39 58 -39 59
-1 2 -24 -19 -52 -46 -48 -47 -93 -78 -93 -66 0 3 25 32 55 65 30 33 55 65 55
72 0 25 -35 98 -48 98 -7 0 -47 53 -89 118 -42 64 -131 200 -198 302 -575 878
-850 1300 -923 1421 l-54 88 15 58 c8 32 13 61 10 65 -2 4 -28 -8 -58 -27 -52
-34 -85 -38 -85 -10 0 14 60 97 92 128 16 16 43 54 83 116 6 8 25 38 44 66 29
44 32 56 28 95 -5 45 -5 46 31 62 20 8 53 19 72 23 19 4 61 21 93 38 50 26 66
42 108 108 43 67 155 183 208 214 25 15 175 128 186 141 12 13 381 268 440
304 22 13 58 38 80 55 38 30 120 83 202 131 20 11 46 31 58 42 13 12 27 22 33
22 6 0 23 10 39 23 15 12 44 31 63 41 19 11 40 24 45 28 6 4 35 25 65 45 30
20 57 39 60 43 3 3 22 16 43 29 21 13 43 29 50 35 7 7 21 18 33 24 11 6 26 22
33 35 12 23 11 30 -13 72 -14 26 -26 63 -26 81 0 31 -3 34 -27 33 -16 0 -52
-6 -81 -13z m-3280 -1706 c50 -19 106 -56 97 -64 -5 -5 -182 63 -193 75 -18
16 42 10 96 -11z m2898 -2710 c0 -39 -30 -79 -112 -151 -46 -40 -91 -80 -100
-90 -24 -24 -123 -99 -190 -143 -101 -67 -85 -32 22 49 123 93 226 189 306
285 32 39 62 70 66 70 4 0 8 -9 8 -20z m-770 -460 c0 -5 -7 -10 -15 -10 -8 0
-15 5 -15 10 0 6 7 10 15 10 8 0 15 -4 15 -10z"/>
<path d="M14678 12203 c7 -3 16 -2 19 1 4 3 -2 6 -13 5 -11 0 -14 -3 -6 -6z"/>
<path d="M14590 12170 c0 -5 5 -10 10 -10 6 0 10 5 10 10 0 6 -4 10 -10 10 -5
0 -10 -4 -10 -10z"/>
<path d="M14501 12141 c-10 -7 -10 -10 -1 -16 6 -4 16 -3 22 3 13 13 -4 23
-21 13z"/>
<path d="M14425 12117 c-16 -5 -37 -16 -46 -23 -9 -8 -19 -11 -22 -7 -4 3 -16
-2 -28 -13 -12 -10 -24 -18 -28 -17 -3 2 -21 -2 -38 -8 -26 -8 -30 -13 -20
-23 13 -14 58 -4 87 19 8 6 45 26 83 43 37 17 67 33 67 35 0 7 -24 4 -55 -6z"/>
<path d="M14165 12005 c-23 -14 -33 -25 -23 -25 9 0 20 5 23 10 3 6 17 10 31
10 15 0 24 6 24 15 0 20 -8 19 -55 -10z"/>
<path d="M10571 11337 c-13 -6 -31 -23 -40 -37 -10 -14 -11 -21 -3 -16 12 7
196 -25 277 -48 35 -10 44 -9 72 9 18 11 33 23 33 26 0 8 -125 44 -222 63 -92
19 -87 19 -117 3z"/>
<path d="M10832 10995 c-51 -58 -110 -177 -118 -237 -4 -27 -3 -48 2 -47 14 0
84 96 104 141 10 22 21 35 24 29 9 -13 -44 -290 -115 -599 -17 -73 -29 -142
-27 -155 3 -21 4 -21 30 8 16 16 35 52 43 80 17 59 82 185 95 185 5 0 7 -15 3
-32 -3 -18 -3 -30 1 -27 16 15 66 249 83 381 13 112 15 152 6 204 -22 124 -63
146 -131 69z"/>
<path d="M10324 10959 c-58 -76 -158 -447 -195 -719 -28 -212 -11 -445 35
-489 25 -24 125 -60 247 -91 46 -12 90 -23 97 -25 9 -3 8 4 -4 26 -47 92 -41
346 16 634 17 83 30 159 29 170 0 19 -1 19 -16 -2 -20 -30 -41 -29 -83 2 -19
14 -39 25 -44 25 -18 1 -78 91 -87 129 -11 50 -13 132 -4 154 4 9 4 29 1 43
-4 15 -2 32 6 41 12 15 38 79 38 96 0 5 -4 6 -9 3 -5 -4 -11 -1 -13 5 -3 8 -7
7 -14 -2z"/>
<path d="M10655 10545 c-9 -33 -23 -76 -33 -95 l-16 -35 -6 45 -5 45 -17 -55
c-27 -89 -48 -207 -57 -315 -8 -112 -6 -136 15 -128 11 4 14 -5 14 -36 0 -60
24 -111 51 -111 24 0 89 45 89 61 0 5 -8 22 -19 37 -18 26 -18 30 -1 162 10
74 32 197 50 274 17 76 29 146 27 155 -3 13 -5 13 -12 -4 -4 -11 -15 -36 -23
-55 l-15 -35 -7 30 c-4 17 -5 42 -2 57 2 14 0 34 -6 44 -8 15 -13 8 -27 -41z"/>
<path d="M12940 9400 c-11 -11 -49 -64 -85 -118 -86 -130 -182 -211 -345 -292
-94 -47 -180 -106 -180 -123 0 -6 42 -52 93 -101 144 -141 357 -278 515 -330
46 -16 53 -16 88 -1 20 8 73 44 118 80 45 35 110 86 145 112 79 58 91 84 125
264 28 147 31 194 16 233 -12 31 -142 135 -249 199 -61 36 -198 97 -218 97 -2
0 -12 -9 -23 -20z m224 -149 c17 -19 46 -51 65 -70 35 -39 66 -90 57 -98 -13
-14 -124 103 -162 172 -9 17 -25 36 -35 43 -11 7 -19 20 -19 29 0 18 35 -10
94 -76z m-88 -301 l47 -21 -44 -23 c-24 -13 -69 -29 -99 -36 -30 -6 -69 -18
-87 -26 -17 -8 -37 -14 -45 -14 -8 0 -19 -5 -26 -12 -14 -14 -168 17 -192 39
-11 10 -11 13 -1 13 11 0 11 3 1 15 -10 12 -10 15 4 15 9 0 16 -7 16 -15 0 -8
9 -15 19 -15 11 0 26 7 35 15 19 20 30 19 22 -2 -6 -15 -5 -15 13 1 19 17 21
17 27 2 3 -9 10 -13 15 -10 5 3 9 0 9 -5 0 -6 12 -11 27 -11 14 0 23 3 19 7
-4 4 -15 8 -23 8 -9 0 -18 6 -20 13 -3 8 7 12 31 12 20 0 36 5 36 11 0 6 -7 8
-16 5 -23 -9 -54 2 -54 20 0 12 13 13 70 8 51 -5 70 -4 70 5 0 7 5 9 10 6 6
-3 10 -1 10 4 0 18 75 12 126 -9z m-389 -66 c-3 -3 -12 -4 -19 -1 -8 3 -5 6 6
6 11 1 17 -2 13 -5z"/>
<path d="M15670 8590 c0 -5 5 -10 11 -10 5 0 7 5 4 10 -3 6 -8 10 -11 10 -2 0
-4 -4 -4 -10z"/>
<path d="M12577 8127 c-38 -12 -65 -26 -60 -30 4 -5 1 -14 -8 -20 -8 -7 -18
-20 -22 -29 -3 -10 -15 -18 -26 -18 -27 0 -50 -26 -44 -50 4 -13 -4 -27 -26
-46 -17 -14 -31 -32 -31 -40 0 -8 -4 -14 -9 -14 -5 0 -11 -10 -14 -22 -4 -12
-9 -19 -13 -16 -8 9 5 80 14 74 4 -2 8 7 8 20 1 13 14 41 30 61 l28 36 -45
-30 c-95 -67 -164 -130 -191 -176 -70 -119 -92 -265 -64 -424 26 -148 55 -221
160 -398 112 -190 171 -259 296 -351 199 -147 388 -208 556 -178 57 9 89 23
155 65 46 29 100 66 119 84 19 17 53 43 75 58 76 50 146 165 175 286 45 189
-52 507 -223 738 -117 157 -277 293 -432 368 -160 77 -282 93 -408 52z m273
-338 c0 -6 -21 -30 -47 -53 -143 -126 -153 -138 -147 -165 6 -27 77 -267 99
-336 13 -39 7 -63 -13 -51 -12 7 -82 217 -116 345 l-25 94 36 35 c20 19 68 58
107 88 68 51 106 67 106 43z m518 -244 c-3 -3 -9 2 -12 12 -6 14 -5 15 5 6 7
-7 10 -15 7 -18z m42 -59 c0 -6 -7 -1 -15 10 -8 10 -15 23 -15 28 0 6 7 1 15
-10 8 -10 15 -23 15 -28z m96 -201 c9 -50 -1 -54 -14 -5 -5 22 -6 40 -1 40 4
0 11 -16 15 -35z m-39 -227 c-3 -8 -6 -5 -6 6 -1 11 2 17 5 13 3 -3 4 -12 1
-19z m-87 -65 c0 -33 36 -30 55 5 15 26 16 26 9 2 -3 -14 -12 -35 -20 -47 -8
-12 -14 -27 -14 -34 0 -6 -10 -20 -22 -30 l-23 -20 25 7 c40 10 109 53 120 75
13 23 32 16 23 -9 -4 -9 -22 -33 -40 -52 -32 -33 -37 -35 -101 -35 -101 1
-105 4 -76 61 13 26 24 57 24 68 0 12 3 31 6 44 6 21 7 21 20 5 7 -10 14 -28
14 -40z"/>
<path d="M12485 8090 c-3 -5 -1 -10 4 -10 6 0 11 5 11 10 0 6 -2 10 -4 10 -3
0 -8 -4 -11 -10z"/>
</g>
</svg>
